<svg width="30" height="32" viewBox="0 0 30 32" fill="#fafafa" xmlns="http://www.w3.org/2000/svg">
    <path d="M0 0H3.23846V9.65686H0V0Z" />
    <path
        d="M16.1777 2.64601H19.0279V4.0941C19.3493 3.53569 19.7132 3.12398 20.1197 2.85897C20.5357 2.58449 21.0272 2.44725 21.5944 2.44725C22.1522 2.44725 22.6343 2.58922 23.0408 2.87316C23.4567 3.14764 23.7687 3.52149 23.9767 3.99473C24.5817 2.96308 25.4608 2.44725 26.6142 2.44725C27.1624 2.44725 27.6398 2.59396 28.0463 2.88736C28.4623 3.18077 28.7837 3.60668 29.0106 4.16509C29.2374 4.71404 29.3509 5.36237 29.3509 6.11008V9.65932H26.3589V6.11008C26.3589 5.62738 26.2738 5.26299 26.1037 5.01691C25.943 4.77083 25.7161 4.64779 25.423 4.64779C25.1016 4.64779 24.8227 4.78502 24.5864 5.0595C24.3595 5.33398 24.2461 5.66524 24.2461 6.05329V9.65932H21.2825V6.11008C21.2825 5.62738 21.1974 5.26299 21.0272 5.01691C20.8665 4.77083 20.6349 4.64779 20.3324 4.64779C20.011 4.64779 19.7369 4.78502 19.51 5.0595C19.2831 5.33398 19.1697 5.66524 19.1697 6.05329V9.65932H16.1777V2.64601Z" />
    <path
        d="M8.52581 31.2391C8.96508 31.7444 9.57725 31.997 10.3623 31.997C10.7175 31.997 11.0586 31.9549 11.3857 31.8707C11.7222 31.7865 11.9932 31.6649 12.1989 31.5058L12.0447 29.5548C11.8484 29.667 11.6568 29.7232 11.4699 29.7232C11.2829 29.7232 11.1287 29.667 11.0072 29.5548C10.8951 29.4331 10.839 29.2647 10.839 29.0495V24.8527H7.8669V29.1758C7.8669 30.046 8.08654 30.7338 8.52581 31.2391Z" />
    <path
        d="M13.1168 25.0496H15.9414V26.4847C16.4847 25.3967 17.3466 24.8527 18.5271 24.8527C19.4264 24.8527 20.1291 25.1763 20.635 25.8235C21.1502 26.4613 21.4079 27.3477 21.4079 28.4826V32H18.4568V28.1871C18.4568 27.7838 18.3678 27.4743 18.1898 27.2586C18.0212 27.0428 17.7823 26.935 17.4731 26.935C17.2483 26.935 17.0281 27.01 16.8126 27.1601C16.5972 27.3008 16.4192 27.5071 16.2786 27.7791C16.1475 28.0511 16.0819 28.3607 16.0819 28.7077V32H13.1168V25.0496Z" />
    <path fill-rule="evenodd" clip-rule="evenodd"
        d="M26.2532 31.9972C25.488 31.9972 24.8057 31.8449 24.2064 31.5403C23.6164 31.2265 23.1554 30.8019 22.8235 30.2665C22.4916 29.7219 22.3256 29.108 22.3256 28.4249C22.3256 27.7234 22.4962 27.1003 22.8373 26.5557C23.1784 26.0111 23.6394 25.5911 24.2203 25.2957C24.8011 25.0003 25.4465 24.8527 26.1564 24.8527C26.8386 24.8527 27.4195 25.005 27.8989 25.3096C28.3875 25.605 28.7517 26.0111 28.9914 26.528C29.2311 27.0357 29.351 27.608 29.351 28.2449C29.351 28.4111 29.3418 28.5311 29.3233 28.6049L25.1745 29.1449C25.2851 29.468 25.4649 29.7034 25.7138 29.8511C25.9628 29.9896 26.2901 30.0588 26.6957 30.0588C27.3227 30.0588 28.0003 29.8972 28.7287 29.5742L29.0744 31.4295C28.217 31.808 27.2766 31.9972 26.2532 31.9972ZM27.2074 27.4003C27.0599 26.8188 26.7096 26.528 26.1564 26.528C25.8245 26.528 25.5617 26.6526 25.3681 26.9019C25.1745 27.1511 25.0731 27.4742 25.0639 27.8711L27.2074 27.4003Z" />
    <path fill-rule="evenodd" clip-rule="evenodd"
        d="M8.26942 9.30085C8.79199 9.61293 9.35124 9.76898 9.94715 9.76898C10.9923 9.76898 11.7441 9.30544 12.2025 8.37836V9.65883H15.0904V2.66446H12.2025V4.2616C11.9916 3.72922 11.6799 3.32993 11.2673 3.06375C10.8639 2.79756 10.4239 2.66446 9.94715 2.66446C9.3604 2.66446 8.80574 2.81591 8.28317 3.11882C7.76059 3.42172 7.34345 3.84396 7.03174 4.38552C6.72003 4.9179 6.56418 5.51453 6.56418 6.17541C6.56418 6.84548 6.72003 7.45588 7.03174 8.00662C7.34345 8.54817 7.75601 8.97959 8.26942 9.30085ZM11.7762 7.20805C11.5195 7.46506 11.2077 7.59356 10.841 7.59356C10.4651 7.59356 10.1397 7.46047 9.86464 7.19428C9.5896 6.92809 9.45208 6.60223 9.45208 6.21672C9.45208 5.84038 9.58502 5.51912 9.85089 5.25293C10.1259 4.97756 10.456 4.83987 10.841 4.83987C11.1894 4.83987 11.4965 4.96838 11.7624 5.22539C12.0374 5.4824 12.1841 5.79449 12.2025 6.16164V6.27179C12.1841 6.62977 12.042 6.94186 11.7762 7.20805Z" />
    <path fill-rule="evenodd" clip-rule="evenodd"
        d="M0 10.7258H7.84447C11.0919 10.7258 13.6013 11.3443 15.3726 12.5811C17.165 13.818 18.0612 15.5496 18.0612 17.776C18.0612 19.1777 17.6184 20.4043 16.7328 21.4556C15.8682 22.507 15.1905 22.909 13.6722 23.4862C12.4267 23.9492 10.709 23.9272 9.11057 23.9067C8.78748 23.9025 8.46924 23.8984 8.16077 23.8984H6.83228V31.9999H0V10.7258ZM8.06856 22.0248C8.4121 22.327 8.8285 22.4782 9.31779 22.4782C9.78625 22.4782 10.1975 22.327 10.5514 22.0248C10.9054 21.7225 11.0823 21.3421 11.0823 20.8835C11.0823 20.4561 10.9054 20.0861 10.5514 19.7734C10.2079 19.4608 9.79666 19.3044 9.31779 19.3044C8.85973 19.3044 8.45373 19.4555 8.09979 19.7578C7.74584 20.0601 7.56886 20.4353 7.56886 20.8835C7.56886 21.3317 7.73543 21.7121 8.06856 22.0248Z" />
</svg>